<svg width="256" height="256" viewBox="-5 -10 170 180" xmlns="http://www.w3.org/2000/svg">
  <!-- Pattern E: 飛び出すひよこ (from hiyocanvas_icon_canvas_variations.svg) -->
  <!-- Background: rounded square -->
  <rect x="-5" y="-10" width="170" height="180" rx="16" fill="#2b2b2b"/>

  <!-- Canvas -->
  <rect x="15" y="40" width="130" height="130" rx="5" fill="#FAFAFA" stroke="#9E9E9E" stroke-width="2"/>
  <rect x="23" y="48" width="114" height="114" fill="#E8EAF6"/>
  <rect x="32" y="90" width="32" height="16" rx="4" fill="#90CAF9" opacity="0.7"/>
  <rect x="80" y="90" width="32" height="16" rx="4" fill="#CE93D8" opacity="0.7"/>
  <line x1="64" y1="98" x2="80" y2="98" stroke="#78909C" stroke-width="1"/>
  <rect x="50" y="120" width="55" height="14" rx="3" fill="#A5D6A7" opacity="0.6"/>
  <line x1="80" y1="106" x2="77" y2="120" stroke="#78909C" stroke-width="1"/>
  <rect x="32" y="142" width="40" height="10" rx="3" fill="#FFCC80" opacity="0.5"/>
  <rect x="80" y="142" width="48" height="10" rx="3" fill="#FFCC80" opacity="0.4"/>

  <!-- Chick body -->
  <circle cx="80" cy="35" r="40" fill="#FFD54F"/>
  <circle cx="80" cy="35" r="40" fill="none" stroke="#F9A825" stroke-width="1.2"/>
  <!-- Cheeks -->
  <ellipse cx="57" cy="42" rx="9" ry="5.5" fill="#FFAB40" opacity="0.3"/>
  <ellipse cx="103" cy="42" rx="9" ry="5.5" fill="#FFAB40" opacity="0.3"/>
  <!-- Eyes -->
  <circle cx="67" cy="28" r="4" fill="#4E342E"/>
  <circle cx="93" cy="28" r="4" fill="#4E342E"/>
  <circle cx="69" cy="26" r="1.4" fill="#fff"/>
  <circle cx="95" cy="26" r="1.4" fill="#fff"/>
  <!-- Beak -->
  <path d="M73 39L80 47L87 39Z" fill="#FF8F00"/>
  <!-- Crest -->
  <ellipse cx="80" cy="-2" rx="6" ry="9" fill="#FF7043"/>
  <ellipse cx="73" cy="1" rx="4.5" ry="6.5" fill="#FF8A65"/>
  <!-- Wings -->
  <ellipse cx="43" cy="42" rx="10" ry="15" fill="#FFC107" transform="rotate(-12 43 42)"/>
  <ellipse cx="117" cy="42" rx="10" ry="15" fill="#FFC107" transform="rotate(12 117 42)"/>
</svg>
